<mxfile host="app.diagrams.net" modified="2020-12-03T09:26:34.884Z" agent="5.0 (Macintosh; Intel Mac OS X 10_15_7) AppleWebKit/537.36 (KHTML, like Gecko) Chrome/87.0.4280.67 Safari/537.36" etag="FehpmFX54BXdt5tdNNRe" version="13.10.6" type="github">
  <diagram id="irGGcgqm2z5-2A56kE-M" name="Page-2">
    <mxGraphModel dx="1080" dy="702" grid="1" gridSize="10" guides="1" tooltips="1" connect="1" arrows="1" fold="1" page="1" pageScale="1" pageWidth="1600" pageHeight="1200" math="0" shadow="0">
      <root>
        <mxCell id="daA_jaV6r-lbXgrwhcHC-0" />
        <mxCell id="daA_jaV6r-lbXgrwhcHC-1" parent="daA_jaV6r-lbXgrwhcHC-0" />
        <mxCell id="r8aNibQZwsTYz99uHEzL-0" value="" style="rounded=0;whiteSpace=wrap;html=1;textDirection=ltr;" parent="daA_jaV6r-lbXgrwhcHC-1" vertex="1">
          <mxGeometry x="60" y="200" width="201" height="390" as="geometry" />
        </mxCell>
        <mxCell id="GDe6iYOnL6XtTdzz9oO4-0" value="NC5.5" style="rounded=0;whiteSpace=wrap;html=1;textDirection=ltr;" parent="daA_jaV6r-lbXgrwhcHC-1" vertex="1">
          <mxGeometry x="100.5" y="230" width="120" height="60" as="geometry" />
        </mxCell>
        <mxCell id="Aj8RlQGPXVslVgJBgdAv-0" value="金蝶" style="rounded=0;whiteSpace=wrap;html=1;textDirection=ltr;" parent="daA_jaV6r-lbXgrwhcHC-1" vertex="1">
          <mxGeometry x="100.5" y="320" width="120" height="60" as="geometry" />
        </mxCell>
        <mxCell id="Y89TqgO9ryzqsTXEPaqG-0" value="浪潮" style="rounded=0;whiteSpace=wrap;html=1;textDirection=ltr;" parent="daA_jaV6r-lbXgrwhcHC-1" vertex="1">
          <mxGeometry x="100.5" y="410" width="120" height="60" as="geometry" />
        </mxCell>
        <mxCell id="HVHI13wnJIN2CHZ6_BIz-0" value="NC Cloud" style="rounded=0;whiteSpace=wrap;html=1;textDirection=ltr;" parent="daA_jaV6r-lbXgrwhcHC-1" vertex="1">
          <mxGeometry x="100.5" y="500" width="120" height="60" as="geometry" />
        </mxCell>
        <mxCell id="rxpGz6OqSaL86eKcfUDQ-0" value="Oracle" style="text;html=1;strokeColor=none;fillColor=none;align=center;verticalAlign=middle;whiteSpace=wrap;rounded=0;textDirection=ltr;" parent="daA_jaV6r-lbXgrwhcHC-1" vertex="1">
          <mxGeometry x="70.5" y="200" width="40" height="20" as="geometry" />
        </mxCell>
        <mxCell id="rxpGz6OqSaL86eKcfUDQ-1" style="edgeStyle=orthogonalEdgeStyle;rounded=0;orthogonalLoop=1;jettySize=auto;html=1;exitX=0.5;exitY=1;exitDx=0;exitDy=0;" parent="daA_jaV6r-lbXgrwhcHC-1" source="rxpGz6OqSaL86eKcfUDQ-0" target="rxpGz6OqSaL86eKcfUDQ-0" edge="1">
          <mxGeometry relative="1" as="geometry" />
        </mxCell>
        <mxCell id="JgwEjrOgx7C4Gz7cInEH-1" value="" style="edgeStyle=orthogonalEdgeStyle;rounded=0;orthogonalLoop=1;jettySize=auto;html=1;" parent="daA_jaV6r-lbXgrwhcHC-1" source="sEHo4uySBJTCQTvLYaMh-10" target="PHl3X9A4R3H9BnZ7pQ0b-1" edge="1">
          <mxGeometry relative="1" as="geometry" />
        </mxCell>
        <mxCell id="sEHo4uySBJTCQTvLYaMh-10" value="Kafka" style="rounded=0;whiteSpace=wrap;html=1;textDirection=ltr;" parent="daA_jaV6r-lbXgrwhcHC-1" vertex="1">
          <mxGeometry x="380.5" y="269" width="180" height="60" as="geometry" />
        </mxCell>
        <mxCell id="sEHo4uySBJTCQTvLYaMh-11" value="" style="edgeStyle=orthogonalEdgeStyle;rounded=0;orthogonalLoop=1;jettySize=auto;html=1;textDirection=ltr;" parent="daA_jaV6r-lbXgrwhcHC-1" source="sEHo4uySBJTCQTvLYaMh-12" target="sEHo4uySBJTCQTvLYaMh-13" edge="1">
          <mxGeometry relative="1" as="geometry" />
        </mxCell>
        <mxCell id="sEHo4uySBJTCQTvLYaMh-12" value="MySQL" style="rounded=0;whiteSpace=wrap;html=1;textDirection=ltr;" parent="daA_jaV6r-lbXgrwhcHC-1" vertex="1">
          <mxGeometry x="360.5" y="470" width="95" height="40" as="geometry" />
        </mxCell>
        <mxCell id="6W1a8kiytmIF8fzJBV04-0" style="edgeStyle=orthogonalEdgeStyle;rounded=0;orthogonalLoop=1;jettySize=auto;html=1;entryX=0;entryY=0.5;entryDx=0;entryDy=0;" parent="daA_jaV6r-lbXgrwhcHC-1" source="sEHo4uySBJTCQTvLYaMh-13" target="PHl3X9A4R3H9BnZ7pQ0b-2" edge="1">
          <mxGeometry relative="1" as="geometry" />
        </mxCell>
        <mxCell id="sEHo4uySBJTCQTvLYaMh-13" value="Hive" style="rounded=0;whiteSpace=wrap;html=1;textDirection=ltr;" parent="daA_jaV6r-lbXgrwhcHC-1" vertex="1">
          <mxGeometry x="490.5" y="470" width="95" height="40" as="geometry" />
        </mxCell>
        <mxCell id="sEHo4uySBJTCQTvLYaMh-14" value="" style="endArrow=none;dashed=1;html=1;dashPattern=1 3;strokeWidth=2;textDirection=ltr;" parent="daA_jaV6r-lbXgrwhcHC-1" edge="1">
          <mxGeometry width="50" height="50" relative="1" as="geometry">
            <mxPoint x="340.5" y="589" as="sourcePoint" />
            <mxPoint x="600.5" y="589" as="targetPoint" />
          </mxGeometry>
        </mxCell>
        <mxCell id="sEHo4uySBJTCQTvLYaMh-15" value="" style="endArrow=none;dashed=1;html=1;dashPattern=1 3;strokeWidth=2;textDirection=ltr;" parent="daA_jaV6r-lbXgrwhcHC-1" edge="1">
          <mxGeometry width="50" height="50" relative="1" as="geometry">
            <mxPoint x="340.5" y="589" as="sourcePoint" />
            <mxPoint x="340.5" y="199" as="targetPoint" />
          </mxGeometry>
        </mxCell>
        <mxCell id="sEHo4uySBJTCQTvLYaMh-16" value="" style="endArrow=none;dashed=1;html=1;dashPattern=1 3;strokeWidth=2;textDirection=ltr;" parent="daA_jaV6r-lbXgrwhcHC-1" edge="1">
          <mxGeometry width="50" height="50" relative="1" as="geometry">
            <mxPoint x="340.5" y="198" as="sourcePoint" />
            <mxPoint x="600.5" y="198" as="targetPoint" />
            <Array as="points" />
          </mxGeometry>
        </mxCell>
        <mxCell id="sEHo4uySBJTCQTvLYaMh-17" value="" style="endArrow=none;dashed=1;html=1;dashPattern=1 3;strokeWidth=2;textDirection=ltr;" parent="daA_jaV6r-lbXgrwhcHC-1" edge="1">
          <mxGeometry width="50" height="50" relative="1" as="geometry">
            <mxPoint x="599.5" y="590" as="sourcePoint" />
            <mxPoint x="599.5" y="200" as="targetPoint" />
          </mxGeometry>
        </mxCell>
        <mxCell id="sEHo4uySBJTCQTvLYaMh-18" value="stg" style="text;html=1;strokeColor=none;fillColor=none;align=center;verticalAlign=middle;whiteSpace=wrap;rounded=0;textDirection=ltr;" parent="daA_jaV6r-lbXgrwhcHC-1" vertex="1">
          <mxGeometry x="360.5" y="210" width="40" height="20" as="geometry" />
        </mxCell>
        <mxCell id="sEHo4uySBJTCQTvLYaMh-19" value="ods" style="text;html=1;strokeColor=none;fillColor=none;align=center;verticalAlign=middle;whiteSpace=wrap;rounded=0;textDirection=ltr;" parent="daA_jaV6r-lbXgrwhcHC-1" vertex="1">
          <mxGeometry x="440" y="170" width="40" height="20" as="geometry" />
        </mxCell>
        <mxCell id="g2Vy-D8-3e_UKcgfukpI-0" value="" style="endArrow=classic;html=1;entryX=0;entryY=0.5;entryDx=0;entryDy=0;" parent="daA_jaV6r-lbXgrwhcHC-1" target="sEHo4uySBJTCQTvLYaMh-10" edge="1">
          <mxGeometry width="50" height="50" relative="1" as="geometry">
            <mxPoint x="260.5" y="299" as="sourcePoint" />
            <mxPoint x="590.5" y="310" as="targetPoint" />
          </mxGeometry>
        </mxCell>
        <mxCell id="wp1qSeNs0Q2mMvq66nT--0" value="archiveLog" style="text;html=1;strokeColor=none;fillColor=none;align=center;verticalAlign=middle;whiteSpace=wrap;rounded=0;textDirection=ltr;" parent="daA_jaV6r-lbXgrwhcHC-1" vertex="1">
          <mxGeometry x="280.5" y="267" width="40" height="23" as="geometry" />
        </mxCell>
        <mxCell id="9kuiRGTxPZVZnflIVofT-0" value="实时采集" style="text;html=1;strokeColor=none;fillColor=none;align=center;verticalAlign=middle;whiteSpace=wrap;rounded=0;textDirection=ltr;" parent="daA_jaV6r-lbXgrwhcHC-1" vertex="1">
          <mxGeometry x="273.5" y="309" width="54" height="20" as="geometry" />
        </mxCell>
        <mxCell id="mMiLQNQK5fYgm22tHgSy-0" value="批量同步" style="text;html=1;strokeColor=none;fillColor=none;align=center;verticalAlign=middle;whiteSpace=wrap;rounded=0;textDirection=ltr;" parent="daA_jaV6r-lbXgrwhcHC-1" vertex="1">
          <mxGeometry x="265.5" y="500" width="70" height="20" as="geometry" />
        </mxCell>
        <mxCell id="mMiLQNQK5fYgm22tHgSy-1" value="" style="endArrow=classic;html=1;entryX=0;entryY=0.5;entryDx=0;entryDy=0;" parent="daA_jaV6r-lbXgrwhcHC-1" target="sEHo4uySBJTCQTvLYaMh-12" edge="1">
          <mxGeometry width="50" height="50" relative="1" as="geometry">
            <mxPoint x="260.5" y="490" as="sourcePoint" />
            <mxPoint x="360.5" y="490" as="targetPoint" />
          </mxGeometry>
        </mxCell>
        <mxCell id="PHl3X9A4R3H9BnZ7pQ0b-0" value="Flink" style="text;html=1;align=center;verticalAlign=middle;resizable=0;points=[];autosize=1;textDirection=ltr;" parent="daA_jaV6r-lbXgrwhcHC-1" vertex="1">
          <mxGeometry x="630" y="260" width="40" height="20" as="geometry" />
        </mxCell>
        <mxCell id="is7krRQsAzeA-gnGLOin-0" style="edgeStyle=orthogonalEdgeStyle;rounded=0;orthogonalLoop=1;jettySize=auto;html=1;entryX=0;entryY=0.5;entryDx=0;entryDy=0;" parent="daA_jaV6r-lbXgrwhcHC-1" source="PHl3X9A4R3H9BnZ7pQ0b-1" target="Dsg33bfTI4xgVcbuv80I-23" edge="1">
          <mxGeometry relative="1" as="geometry" />
        </mxCell>
        <mxCell id="PHl3X9A4R3H9BnZ7pQ0b-1" value="hudi/kafka" style="rounded=0;whiteSpace=wrap;html=1;textDirection=ltr;" parent="daA_jaV6r-lbXgrwhcHC-1" vertex="1">
          <mxGeometry x="710.5" y="269" width="120" height="60" as="geometry" />
        </mxCell>
        <mxCell id="MDZeMjGnQCORA1ztTCDU-0" value="" style="edgeStyle=orthogonalEdgeStyle;rounded=0;orthogonalLoop=1;jettySize=auto;html=1;" parent="daA_jaV6r-lbXgrwhcHC-1" source="PHl3X9A4R3H9BnZ7pQ0b-2" target="Dsg33bfTI4xgVcbuv80I-33" edge="1">
          <mxGeometry relative="1" as="geometry" />
        </mxCell>
        <mxCell id="PHl3X9A4R3H9BnZ7pQ0b-2" value="Hive" style="rounded=0;whiteSpace=wrap;html=1;textDirection=ltr;" parent="daA_jaV6r-lbXgrwhcHC-1" vertex="1">
          <mxGeometry x="710.5" y="460" width="120" height="60" as="geometry" />
        </mxCell>
        <mxCell id="PHl3X9A4R3H9BnZ7pQ0b-3" value="" style="endArrow=classic;html=1;entryX=0.5;entryY=0;entryDx=0;entryDy=0;exitX=0.5;exitY=1;exitDx=0;exitDy=0;textDirection=ltr;" parent="daA_jaV6r-lbXgrwhcHC-1" source="PHl3X9A4R3H9BnZ7pQ0b-1" target="PHl3X9A4R3H9BnZ7pQ0b-2" edge="1">
          <mxGeometry width="50" height="50" relative="1" as="geometry">
            <mxPoint x="930.5" y="440" as="sourcePoint" />
            <mxPoint x="990.5" y="420" as="targetPoint" />
          </mxGeometry>
        </mxCell>
        <mxCell id="PHl3X9A4R3H9BnZ7pQ0b-5" value="dwd" style="text;html=1;strokeColor=none;fillColor=none;align=center;verticalAlign=middle;whiteSpace=wrap;rounded=0;textDirection=ltr;" parent="daA_jaV6r-lbXgrwhcHC-1" vertex="1">
          <mxGeometry x="750.5" y="170" width="40" height="20" as="geometry" />
        </mxCell>
        <mxCell id="PHl3X9A4R3H9BnZ7pQ0b-7" value="" style="endArrow=none;dashed=1;html=1;dashPattern=1 3;strokeWidth=2;textDirection=ltr;" parent="daA_jaV6r-lbXgrwhcHC-1" edge="1">
          <mxGeometry width="50" height="50" relative="1" as="geometry">
            <mxPoint x="680.5" y="198" as="sourcePoint" />
            <mxPoint x="870" y="198" as="targetPoint" />
          </mxGeometry>
        </mxCell>
        <mxCell id="PHl3X9A4R3H9BnZ7pQ0b-8" value="" style="endArrow=none;dashed=1;html=1;dashPattern=1 3;strokeWidth=2;textDirection=ltr;" parent="daA_jaV6r-lbXgrwhcHC-1" edge="1">
          <mxGeometry width="50" height="50" relative="1" as="geometry">
            <mxPoint x="680.5" y="590" as="sourcePoint" />
            <mxPoint x="870" y="590" as="targetPoint" />
          </mxGeometry>
        </mxCell>
        <mxCell id="PHl3X9A4R3H9BnZ7pQ0b-9" value="" style="endArrow=none;dashed=1;html=1;dashPattern=1 3;strokeWidth=2;textDirection=ltr;" parent="daA_jaV6r-lbXgrwhcHC-1" edge="1">
          <mxGeometry width="50" height="50" relative="1" as="geometry">
            <mxPoint x="680.5" y="590" as="sourcePoint" />
            <mxPoint x="680.5" y="199" as="targetPoint" />
          </mxGeometry>
        </mxCell>
        <mxCell id="PHl3X9A4R3H9BnZ7pQ0b-10" value="" style="endArrow=none;dashed=1;html=1;dashPattern=1 3;strokeWidth=2;textDirection=ltr;" parent="daA_jaV6r-lbXgrwhcHC-1" edge="1">
          <mxGeometry width="50" height="50" relative="1" as="geometry">
            <mxPoint x="870" y="590" as="sourcePoint" />
            <mxPoint x="870" y="199" as="targetPoint" />
          </mxGeometry>
        </mxCell>
        <mxCell id="PHl3X9A4R3H9BnZ7pQ0b-11" value="Flink" style="text;html=1;align=center;verticalAlign=middle;resizable=0;points=[];autosize=1;textDirection=ltr;" parent="daA_jaV6r-lbXgrwhcHC-1" vertex="1">
          <mxGeometry x="720.5" y="380" width="40" height="20" as="geometry" />
        </mxCell>
        <mxCell id="KE4NB5HBOQqfoY3hLGVU-0" value="" style="endArrow=classic;html=1;exitX=1;exitY=1;exitDx=0;exitDy=0;entryX=0;entryY=0;entryDx=0;entryDy=0;" parent="daA_jaV6r-lbXgrwhcHC-1" source="sEHo4uySBJTCQTvLYaMh-13" target="e2jJFcc5ELl3HmvP1lt8-0" edge="1">
          <mxGeometry width="50" height="50" relative="1" as="geometry">
            <mxPoint x="610.5" y="650" as="sourcePoint" />
            <mxPoint x="660.5" y="600" as="targetPoint" />
          </mxGeometry>
        </mxCell>
        <mxCell id="e2jJFcc5ELl3HmvP1lt8-0" value="Hive" style="rounded=0;whiteSpace=wrap;html=1;gradientColor=none;" parent="daA_jaV6r-lbXgrwhcHC-1" vertex="1">
          <mxGeometry x="710.5" y="640" width="120" height="60" as="geometry" />
        </mxCell>
        <mxCell id="9ujulvO76KFricgaUz4h-0" value="dim" style="text;html=1;strokeColor=none;fillColor=none;align=center;verticalAlign=middle;whiteSpace=wrap;rounded=0;textDirection=ltr;" parent="daA_jaV6r-lbXgrwhcHC-1" vertex="1">
          <mxGeometry x="660.5" y="670" width="40" height="20" as="geometry" />
        </mxCell>
        <mxCell id="Dsg33bfTI4xgVcbuv80I-21" value="" style="endArrow=classic;html=1;entryX=0;entryY=0.5;entryDx=0;entryDy=0;textDirection=ltr;" parent="daA_jaV6r-lbXgrwhcHC-1" target="Dsg33bfTI4xgVcbuv80I-26" edge="1">
          <mxGeometry width="50" height="50" relative="1" as="geometry">
            <mxPoint x="1070" y="300" as="sourcePoint" />
            <mxPoint x="940" y="410" as="targetPoint" />
            <Array as="points">
              <mxPoint x="1070" y="300" />
            </Array>
          </mxGeometry>
        </mxCell>
        <mxCell id="Dsg33bfTI4xgVcbuv80I-23" value="hudi/kafka" style="rounded=0;whiteSpace=wrap;html=1;textDirection=ltr;" parent="daA_jaV6r-lbXgrwhcHC-1" vertex="1">
          <mxGeometry x="970" y="269" width="120" height="60" as="geometry" />
        </mxCell>
        <mxCell id="Dsg33bfTI4xgVcbuv80I-24" value="" style="endArrow=classic;html=1;exitX=1;exitY=1;exitDx=0;exitDy=0;entryX=0.5;entryY=0;entryDx=0;entryDy=0;textDirection=ltr;" parent="daA_jaV6r-lbXgrwhcHC-1" source="Dsg33bfTI4xgVcbuv80I-23" target="Dsg33bfTI4xgVcbuv80I-30" edge="1">
          <mxGeometry width="50" height="50" relative="1" as="geometry">
            <mxPoint x="1040" y="360" as="sourcePoint" />
            <mxPoint x="1360" y="409" as="targetPoint" />
            <Array as="points" />
          </mxGeometry>
        </mxCell>
        <mxCell id="Dsg33bfTI4xgVcbuv80I-25" value="实时&lt;br&gt;更新" style="text;html=1;align=center;verticalAlign=middle;resizable=0;points=[];autosize=1;textDirection=ltr;" parent="daA_jaV6r-lbXgrwhcHC-1" vertex="1">
          <mxGeometry x="1090" y="360" width="40" height="30" as="geometry" />
        </mxCell>
        <mxCell id="Dsg33bfTI4xgVcbuv80I-26" value="ClickHouse" style="rounded=0;whiteSpace=wrap;html=1;textDirection=ltr;" parent="daA_jaV6r-lbXgrwhcHC-1" vertex="1">
          <mxGeometry x="1180" y="270" width="120" height="60" as="geometry" />
        </mxCell>
        <mxCell id="Dsg33bfTI4xgVcbuv80I-28" value="" style="endArrow=classic;html=1;exitX=1;exitY=0.5;exitDx=0;exitDy=0;textDirection=ltr;entryX=0;entryY=0.25;entryDx=0;entryDy=0;" parent="daA_jaV6r-lbXgrwhcHC-1" source="Dsg33bfTI4xgVcbuv80I-26" target="Dsg33bfTI4xgVcbuv80I-29" edge="1">
          <mxGeometry width="50" height="50" relative="1" as="geometry">
            <mxPoint x="940" y="470" as="sourcePoint" />
            <mxPoint x="1427" y="420" as="targetPoint" />
            <Array as="points" />
          </mxGeometry>
        </mxCell>
        <mxCell id="Dsg33bfTI4xgVcbuv80I-29" value="QBI" style="rounded=0;whiteSpace=wrap;html=1;textDirection=ltr;" parent="daA_jaV6r-lbXgrwhcHC-1" vertex="1">
          <mxGeometry x="1430" y="400" width="120" height="60" as="geometry" />
        </mxCell>
        <mxCell id="Dsg33bfTI4xgVcbuv80I-30" value="MySQL" style="rounded=0;whiteSpace=wrap;html=1;textDirection=ltr;" parent="daA_jaV6r-lbXgrwhcHC-1" vertex="1">
          <mxGeometry x="1180" y="460" width="120" height="60" as="geometry" />
        </mxCell>
        <mxCell id="Dsg33bfTI4xgVcbuv80I-31" value="" style="endArrow=classic;html=1;entryX=0;entryY=0.75;entryDx=0;entryDy=0;exitX=1;exitY=0.5;exitDx=0;exitDy=0;textDirection=ltr;" parent="daA_jaV6r-lbXgrwhcHC-1" source="Dsg33bfTI4xgVcbuv80I-30" target="Dsg33bfTI4xgVcbuv80I-29" edge="1">
          <mxGeometry width="50" height="50" relative="1" as="geometry">
            <mxPoint x="1150.25" y="470" as="sourcePoint" />
            <mxPoint x="1250.25" y="540" as="targetPoint" />
            <Array as="points" />
          </mxGeometry>
        </mxCell>
        <mxCell id="Dsg33bfTI4xgVcbuv80I-32" value="" style="edgeStyle=orthogonalEdgeStyle;rounded=0;orthogonalLoop=1;jettySize=auto;html=1;textDirection=ltr;" parent="daA_jaV6r-lbXgrwhcHC-1" source="Dsg33bfTI4xgVcbuv80I-33" target="Dsg33bfTI4xgVcbuv80I-30" edge="1">
          <mxGeometry relative="1" as="geometry" />
        </mxCell>
        <mxCell id="Dsg33bfTI4xgVcbuv80I-33" value="Hive" style="rounded=0;whiteSpace=wrap;html=1;textDirection=ltr;" parent="daA_jaV6r-lbXgrwhcHC-1" vertex="1">
          <mxGeometry x="970" y="460" width="120" height="60" as="geometry" />
        </mxCell>
        <mxCell id="Dsg33bfTI4xgVcbuv80I-34" value="dws" style="text;html=1;strokeColor=none;fillColor=none;align=center;verticalAlign=middle;whiteSpace=wrap;rounded=0;textDirection=ltr;" parent="daA_jaV6r-lbXgrwhcHC-1" vertex="1">
          <mxGeometry x="1000" y="170" width="40" height="20" as="geometry" />
        </mxCell>
        <mxCell id="Dsg33bfTI4xgVcbuv80I-35" value="" style="endArrow=none;dashed=1;html=1;dashPattern=1 3;strokeWidth=2;textDirection=ltr;" parent="daA_jaV6r-lbXgrwhcHC-1" edge="1">
          <mxGeometry width="50" height="50" relative="1" as="geometry">
            <mxPoint x="930" y="200" as="sourcePoint" />
            <mxPoint x="1120" y="200" as="targetPoint" />
          </mxGeometry>
        </mxCell>
        <mxCell id="Dsg33bfTI4xgVcbuv80I-36" value="" style="endArrow=none;dashed=1;html=1;dashPattern=1 3;strokeWidth=2;textDirection=ltr;" parent="daA_jaV6r-lbXgrwhcHC-1" edge="1">
          <mxGeometry width="50" height="50" relative="1" as="geometry">
            <mxPoint x="930" y="590" as="sourcePoint" />
            <mxPoint x="1120" y="590" as="targetPoint" />
          </mxGeometry>
        </mxCell>
        <mxCell id="Dsg33bfTI4xgVcbuv80I-37" value="" style="endArrow=none;dashed=1;html=1;dashPattern=1 3;strokeWidth=2;textDirection=ltr;" parent="daA_jaV6r-lbXgrwhcHC-1" edge="1">
          <mxGeometry width="50" height="50" relative="1" as="geometry">
            <mxPoint x="930" y="590" as="sourcePoint" />
            <mxPoint x="930" y="200" as="targetPoint" />
          </mxGeometry>
        </mxCell>
        <mxCell id="Dsg33bfTI4xgVcbuv80I-38" value="" style="endArrow=none;dashed=1;html=1;dashPattern=1 3;strokeWidth=2;textDirection=ltr;" parent="daA_jaV6r-lbXgrwhcHC-1" edge="1">
          <mxGeometry width="50" height="50" relative="1" as="geometry">
            <mxPoint x="1120" y="591" as="sourcePoint" />
            <mxPoint x="1120" y="200" as="targetPoint" />
          </mxGeometry>
        </mxCell>
        <mxCell id="oSuGGkhYG0S8dz1pze5s-2" value="Flink" style="text;html=1;align=center;verticalAlign=middle;resizable=0;points=[];autosize=1;textDirection=ltr;" parent="daA_jaV6r-lbXgrwhcHC-1" vertex="1">
          <mxGeometry x="870" y="270" width="40" height="20" as="geometry" />
        </mxCell>
        <mxCell id="rpThq5wvhFcxbZcWKDtC-0" value="Flink" style="text;html=1;align=center;verticalAlign=middle;resizable=0;points=[];autosize=1;textDirection=ltr;" parent="daA_jaV6r-lbXgrwhcHC-1" vertex="1">
          <mxGeometry x="1120" y="270" width="40" height="20" as="geometry" />
        </mxCell>
        <mxCell id="E70aXcZqn9r8SIfn8rKr-1" value="大数据量查询" style="text;html=1;strokeColor=none;fillColor=none;align=center;verticalAlign=middle;whiteSpace=wrap;rounded=0;textDirection=ltr;" parent="daA_jaV6r-lbXgrwhcHC-1" vertex="1">
          <mxGeometry x="1360" y="329" width="40" height="20" as="geometry" />
        </mxCell>
        <mxCell id="oKbUIwwNZOHDzXq9-jEw-0" value="Hbase" style="rounded=0;whiteSpace=wrap;html=1;gradientColor=none;" vertex="1" parent="daA_jaV6r-lbXgrwhcHC-1">
          <mxGeometry x="710.5" y="60" width="120" height="60" as="geometry" />
        </mxCell>
        <mxCell id="oKbUIwwNZOHDzXq9-jEw-3" value="" style="endArrow=classic;html=1;textDirection=ltr;" edge="1" parent="daA_jaV6r-lbXgrwhcHC-1">
          <mxGeometry width="50" height="50" relative="1" as="geometry">
            <mxPoint x="560" y="300" as="sourcePoint" />
            <mxPoint x="710" y="120" as="targetPoint" />
          </mxGeometry>
        </mxCell>
        <mxCell id="oKbUIwwNZOHDzXq9-jEw-4" value="更新维表" style="edgeLabel;html=1;align=center;verticalAlign=middle;resizable=0;points=[];textDirection=ltr;" vertex="1" connectable="0" parent="oKbUIwwNZOHDzXq9-jEw-3">
          <mxGeometry x="-0.0833" relative="1" as="geometry">
            <mxPoint x="1" as="offset" />
          </mxGeometry>
        </mxCell>
        <mxCell id="oKbUIwwNZOHDzXq9-jEw-5" value="" style="endArrow=classic;html=1;textDirection=ltr;exitX=1;exitY=1;exitDx=0;exitDy=0;" edge="1" parent="daA_jaV6r-lbXgrwhcHC-1" source="oKbUIwwNZOHDzXq9-jEw-0">
          <mxGeometry width="50" height="50" relative="1" as="geometry">
            <mxPoint x="1230" y="250" as="sourcePoint" />
            <mxPoint x="920" y="300" as="targetPoint" />
          </mxGeometry>
        </mxCell>
        <mxCell id="oKbUIwwNZOHDzXq9-jEw-6" value="读取维表" style="edgeLabel;html=1;align=center;verticalAlign=middle;resizable=0;points=[];textDirection=ltr;" vertex="1" connectable="0" parent="oKbUIwwNZOHDzXq9-jEw-5">
          <mxGeometry x="-0.0833" relative="1" as="geometry">
            <mxPoint x="1" as="offset" />
          </mxGeometry>
        </mxCell>
        <mxCell id="oKbUIwwNZOHDzXq9-jEw-7" value="dim" style="text;html=1;strokeColor=none;fillColor=none;align=center;verticalAlign=middle;whiteSpace=wrap;rounded=0;textDirection=ltr;" vertex="1" parent="daA_jaV6r-lbXgrwhcHC-1">
          <mxGeometry x="660" y="80" width="40" height="20" as="geometry" />
        </mxCell>
        <mxCell id="oKbUIwwNZOHDzXq9-jEw-8" value="Flink" style="text;html=1;align=center;verticalAlign=middle;resizable=0;points=[];autosize=1;textDirection=ltr;" vertex="1" parent="daA_jaV6r-lbXgrwhcHC-1">
          <mxGeometry x="610" y="170" width="40" height="20" as="geometry" />
        </mxCell>
        <mxCell id="oKbUIwwNZOHDzXq9-jEw-9" value="Flink" style="text;html=1;align=center;verticalAlign=middle;resizable=0;points=[];autosize=1;textDirection=ltr;" vertex="1" parent="daA_jaV6r-lbXgrwhcHC-1">
          <mxGeometry x="850" y="150" width="40" height="20" as="geometry" />
        </mxCell>
        <mxCell id="oKbUIwwNZOHDzXq9-jEw-11" value="小数据量查询" style="text;html=1;strokeColor=none;fillColor=none;align=center;verticalAlign=middle;whiteSpace=wrap;rounded=0;textDirection=ltr;" vertex="1" parent="daA_jaV6r-lbXgrwhcHC-1">
          <mxGeometry x="1330" y="440" width="40" height="20" as="geometry" />
        </mxCell>
        <mxCell id="oKbUIwwNZOHDzXq9-jEw-12" value="Flink" style="text;html=1;align=center;verticalAlign=middle;resizable=0;points=[];autosize=1;textDirection=ltr;" vertex="1" parent="daA_jaV6r-lbXgrwhcHC-1">
          <mxGeometry x="1120" y="340" width="40" height="20" as="geometry" />
        </mxCell>
        <mxCell id="oKbUIwwNZOHDzXq9-jEw-13" value="" style="endArrow=classic;html=1;textDirection=ltr;exitX=1;exitY=0;exitDx=0;exitDy=0;" edge="1" parent="daA_jaV6r-lbXgrwhcHC-1" source="e2jJFcc5ELl3HmvP1lt8-0">
          <mxGeometry width="50" height="50" relative="1" as="geometry">
            <mxPoint x="880.5" y="540" as="sourcePoint" />
            <mxPoint x="910" y="490" as="targetPoint" />
          </mxGeometry>
        </mxCell>
        <mxCell id="oKbUIwwNZOHDzXq9-jEw-14" value="读取维表" style="edgeLabel;html=1;align=center;verticalAlign=middle;resizable=0;points=[];textDirection=ltr;" vertex="1" connectable="0" parent="oKbUIwwNZOHDzXq9-jEw-13">
          <mxGeometry x="-0.0833" relative="1" as="geometry">
            <mxPoint x="1" as="offset" />
          </mxGeometry>
        </mxCell>
        <mxCell id="oKbUIwwNZOHDzXq9-jEw-15" value="" style="endArrow=classic;html=1;exitX=1;exitY=0.5;exitDx=0;exitDy=0;entryX=0.5;entryY=1;entryDx=0;entryDy=0;textDirection=ltr;" edge="1" parent="daA_jaV6r-lbXgrwhcHC-1" source="Dsg33bfTI4xgVcbuv80I-33" target="Dsg33bfTI4xgVcbuv80I-26">
          <mxGeometry width="50" height="50" relative="1" as="geometry">
            <mxPoint x="1140" y="299" as="sourcePoint" />
            <mxPoint x="1290" y="430" as="targetPoint" />
            <Array as="points" />
          </mxGeometry>
        </mxCell>
        <mxCell id="oKbUIwwNZOHDzXq9-jEw-16" value="Flink" style="text;html=1;align=center;verticalAlign=middle;resizable=0;points=[];autosize=1;textDirection=ltr;" vertex="1" parent="daA_jaV6r-lbXgrwhcHC-1">
          <mxGeometry x="1110" y="410" width="40" height="20" as="geometry" />
        </mxCell>
        <mxCell id="oKbUIwwNZOHDzXq9-jEw-17" value="批量导入" style="text;html=1;align=center;verticalAlign=middle;resizable=0;points=[];autosize=1;textDirection=ltr;" vertex="1" parent="daA_jaV6r-lbXgrwhcHC-1">
          <mxGeometry x="1130" y="430" width="60" height="20" as="geometry" />
        </mxCell>
      </root>
    </mxGraphModel>
  </diagram>
</mxfile>
